<?xml version="1.0" standalone="no"?>
<!DOCTYPE svg PUBLIC "-//W3C//DTD SVG 20010904//EN"
 "http://www.w3.org/TR/2001/REC-SVG-20010904/DTD/svg10.dtd">
<svg version="1.0" xmlns="http://www.w3.org/2000/svg"
 width="150.000000pt" height="40.000000pt" viewBox="0 0 150.000000 40.000000"
 preserveAspectRatio="xMidYMid meet">

<g transform="translate(0.000000,40.000000) scale(0.100000,-0.100000)"
fill="#000000" stroke="none">
<path d="M0 200 l0 -200 750 0 750 0 0 200 0 200 -750 0 -750 0 0 -200z m272
70 c-15 -16 -22 -18 -27 -9 -5 8 -4 10 3 5 7 -4 12 -1 12 8 0 8 6 16 13 19 20
7 20 -1 -1 -23z m64 14 c-3 -9 3 -27 14 -41 21 -28 27 -63 9 -63 -6 0 -8 8 -5
18 6 19 -6 44 -20 43 -5 -1 -9 5 -9 12 0 6 -7 12 -15 12 -8 0 -15 -6 -15 -12
0 -7 -4 -13 -10 -14 -17 -1 -27 -29 -15 -44 7 -8 7 -15 1 -19 -14 -9 -24 12
-17 37 8 30 54 80 66 72 6 -3 10 -1 10 4 0 6 3 11 6 11 3 0 3 -7 0 -16z m36
-18 c7 4 8 2 4 -5 -9 -13 -26 -5 -25 12 0 9 2 8 6 -1 2 -6 10 -9 15 -6z m653
-31 c28 -27 31 -43 12 -70 -13 -16 -14 -15 -9 13 3 24 -2 37 -21 56 -15 14
-22 26 -16 26 5 0 21 -11 34 -25z m-535 -40 c0 -30 -4 -55 -10 -55 -5 0 -10
25 -10 55 0 30 5 55 10 55 6 0 10 -25 10 -55z m110 0 c0 -30 -4 -55 -10 -55
-5 0 -10 25 -10 55 0 30 5 55 10 55 6 0 10 -25 10 -55z m105 25 c17 -33 20
-80 5 -80 -5 0 -10 11 -10 25 0 15 -7 39 -15 55 -9 17 -11 30 -6 30 6 0 17
-13 26 -30z m153 -17 c14 -31 18 -51 12 -57 -6 -6 -10 -7 -10 -3 0 3 -9 29
-20 57 -25 63 -11 66 18 3z m94 13 c-3 -25 2 -40 17 -55 25 -25 6 -29 -21 -4
-20 18 -24 63 -6 81 7 7 12 12 13 12 1 0 -1 -15 -3 -34z m138 -21 c0 -30 -4
-55 -10 -55 -5 0 -10 25 -10 55 0 30 5 55 10 55 6 0 10 -25 10 -55z m42 0 c2
-32 -1 -55 -7 -55 -5 0 -10 25 -10 55 0 71 12 71 17 0z m66 43 c24 -24 5 -98
-26 -98 -3 0 -1 5 6 12 16 16 16 70 0 86 -7 7 -8 12 -2 12 6 0 15 -5 22 -12z
m-883 -18 c3 -5 1 -10 -4 -10 -6 0 -11 5 -11 10 0 6 2 10 4 10 3 0 8 -4 11
-10z m230 -50 c9 -18 11 -30 5 -30 -9 0 -30 40 -30 56 0 12 11 1 25 -26z m115
-20 c0 -5 -8 -10 -17 -10 -15 0 -16 2 -3 10 19 12 20 12 20 0z m-330 -65 c0
-8 -4 -15 -10 -15 -5 0 -10 7 -10 15 0 8 5 15 10 15 6 0 10 -7 10 -15z"/>
</g>
</svg>
